<svg width="42" height="42" viewBox="0 0 42 42" fill="none" xmlns="http://www.w3.org/2000/svg">
<rect x="4" y="8" width="34" height="27" fill="white"/>
<path d="M42 10V32C42 37.514 37.514 42 32 42H10C4.486 42 0 37.514 0 32V10C0 4.486 4.486 0 10 0H32C37.514 0 42 4.486 42 10ZM28.5 9C25.37 9 22.68 10.92 21.56 13.65C23.2 14.32 24.62 15.48 25.6 17C29.08 17.04 32.06 19.18 33.34 22.22C34.97 20.85 36 18.79 36 16.5C36 12.36 32.64 9 28.5 9ZM25.5 19C25.143 19 24.796 19.036 24.455 19.092C23.422 16.686 21.034 15 18.25 15C14.775 15 11.916 17.627 11.544 21.002C11.529 21.002 11.515 21 11.5 21C8.462 21 6 23.462 6 26.5C6 26.612 6.01 26.722 6.017 26.833C6.015 26.89 6 26.943 6 27C6 29.761 8.239 32 11 32H25V31.975C25.166 31.987 25.331 32 25.5 32C29.09 32 32 29.09 32 25.5C32 21.91 29.09 19 25.5 19Z" fill="black"/>
</svg>
